<svg width="100" height="47" viewBox="0 0 100 47" fill="none" xmlns="http://www.w3.org/2000/svg">
<path fill-rule="evenodd" clip-rule="evenodd" d="M84.4132 44.0615C69.3732 38.2355 38.4295 38.951 16.7079 41.5318C13.6846 41.8895 12.1095 46.1057 14.7263 47C31.6463 41.5829 66.2992 41.634 78.4938 44.1637C81.8981 44.7514 83.8035 45.1602 84.4132 44.0615ZM69.4241 23.5429C70.7198 23.7984 72.0917 23.594 73.489 23.0574L73.9971 23.2107L72.4219 23.7729L73.5144 24.054L71.99 24.565L73.0317 24.8972L71.8122 25.3316C71.5073 25.4849 71.2025 25.6382 70.8976 25.7404C71.9138 30.161 65.3846 36.9835 60.6592 36.8046C59.1349 36.7279 57.8138 34.4538 57.7884 33.7894C57.4073 32.5118 57.3565 30.6976 58.1695 28.1934C59.0333 25.5615 60.2781 22.7763 61.7517 20.0167C56.1879 20.8344 49.8111 20.5022 45.543 18.7646C42.9009 17.0015 42.6976 13.6541 44.3744 13.2197C48.6425 17.3592 56.4927 18.7902 62.7679 18.2024C64.7495 14.6762 67.0106 11.2777 69.0938 8.46698C69.6782 8.36477 70.4403 8.6714 71.1009 9.18245L71.1517 9.23356C71.4819 9.48908 71.7614 9.79571 71.99 10.1279C75.1657 13.9096 72.4982 16.8737 67.5949 18.6113C64.1906 24.1306 61.0403 30.0843 60.3798 33.8661C63.403 33.1762 67.3154 29.5477 68.23 26.3792C67.6711 26.3537 67.2646 26.1748 67.0106 25.9193C66.35 25.2549 66.2992 23.2874 67.5187 22.8274C67.5441 22.7252 67.7473 22.6486 67.8998 22.7252C68.4841 22.9552 69.0176 23.2107 69.4241 23.5429ZM68.6619 16.8226C71.2533 15.7239 72.676 14.0374 71.9392 11.9166C70.8976 13.4242 69.7798 15.0851 68.6619 16.8226ZM86.6235 11.2522C86.5981 11.1244 86.5727 10.9967 86.5219 10.8689C86.4965 10.4601 86.3948 10.3068 86.2678 10.3068C85.5819 9.1569 84.1592 8.28812 83.2192 8.44143C79.1289 13.9352 74.4544 21.6009 72.2949 28.219C70.5165 33.7383 72.8538 35.9869 73.8954 36.1658C74.0987 36.3191 74.3527 36.4213 74.6068 36.4469C75.5976 35.1948 78.2397 30.9787 80.5516 29.1389C80.8057 28.9345 80.9581 28.7045 81.0089 28.4745L80.2976 28.73L80.9581 27.9124C80.9327 27.8868 80.9327 27.8613 80.9073 27.8613C79.2051 28.8323 76.7917 30.5698 74.8609 32.3074C76.436 27.0691 81.1613 19.1734 85.2262 13.2453C85.023 15.9538 83.8035 18.0747 82.0251 19.6078H82.0759L81.5932 19.9656C81.4916 20.0422 81.3646 20.1444 81.2376 20.2211L80.8311 20.5277L81.7457 20.5533L80.5262 21.4476H81.4662L80.196 22.4186L81.0851 22.4441C84.1592 20.4511 86.2424 17.1037 86.5219 11.4055L86.6235 11.2522ZM21.8398 25.6382C20.7982 26.8903 19.909 29.3688 19.5279 31.6686C22.043 29.9821 24.0501 27.6313 26.0317 24.3606C26.3365 23.6962 26.616 23.083 26.8701 22.5975C28.1149 22.4952 30.4014 24.8205 30.4014 25.6126C29.3344 26.8647 28.4706 29.3688 28.0895 31.6686C28.8517 30.9786 29.6901 30.2887 30.5284 29.6499L31.3414 29.3688L30.2998 30.6976L31.3414 30.2887L30.3252 31.5408L30.9603 31.3108C29.6901 32.9206 28.5722 34.6326 28.0133 35.3481L27.9879 35.3737C27.8355 35.3737 27.7084 35.3226 27.5814 35.2715C26.1079 34.8371 24.2787 32.9717 24.1771 32.1796C24.1263 31.7708 24.1009 31.3364 24.1517 30.902C22.4749 32.7162 20.7982 34.3771 19.4517 35.297V35.3481H19.3501C17.8257 35.1181 15.7425 33.0228 15.6409 32.1796C15.2344 29.2411 17.2668 24.7694 18.3338 22.5975C19.5533 22.5208 21.8652 24.8461 21.8398 25.6382ZM56.5182 29.701C55.6798 30.3398 54.816 31.0298 54.0792 31.7197C54.4603 29.3944 55.3495 26.8903 56.3911 25.6382C56.3911 24.8461 54.1046 22.5208 52.8598 22.623L52.7328 22.853H52.7073C49.7603 25.076 46.9911 28.2957 44.9079 30.9275C45.3398 28.8578 46.1527 26.737 47.0928 25.6126C47.0928 24.8205 44.8063 22.4952 43.5614 22.5975L43.4344 22.8274H43.409C40.5128 25.0249 37.7944 28.1679 35.7111 30.7742C36.143 28.73 36.9306 26.6858 37.8706 25.5871C37.8706 24.795 35.5841 22.4697 34.3392 22.5719C33.2722 24.7439 31.2398 29.19 31.6463 32.1541C31.7479 32.9973 33.7803 35.0159 35.2792 35.297L35.3301 35.3226C35.3809 35.3226 35.4317 35.3481 35.4825 35.3481C35.4825 35.297 35.4571 35.2459 35.4571 35.1692C37.1084 33.1762 38.9376 30.8509 41.1225 29.0111C40.8684 30.1354 40.7414 31.2342 40.8684 32.1541C40.9955 33.0229 43.1803 35.1948 44.7046 35.3481L44.6792 35.2459C46.356 33.2272 48.2106 30.8764 50.4209 29.0111C50.1668 30.1354 50.0398 31.2342 50.1668 32.1541C50.2684 32.9462 52.123 34.8626 53.6219 35.2715C53.749 35.3226 53.876 35.3481 54.003 35.3481C54.5619 34.6326 55.6798 32.8951 56.9755 31.2853L56.3403 31.5153L57.3565 30.2632L56.3149 30.672L57.3565 29.3433L56.5182 29.701ZM89.977 21.141C90.5359 24.4372 89.0116 26.6092 86.0392 27.0947C87.0808 24.9483 88.4781 22.9041 89.977 21.141ZM85.7597 27.7079C84.8705 29.701 84.337 31.7452 84.337 33.7127C90.6376 33.8916 97.624 26.9158 97.9035 19.1223C98.4878 17.9725 99.7327 21.4732 99.8343 22.0609C100.038 23.0574 100.063 24.1306 99.8597 25.1272C98.5894 30.672 91.3743 37.3923 85.4295 36.7279C85.3024 36.7024 85.0484 36.6002 84.7435 36.3957V36.4469C76.9186 32.3074 83.27 22.4186 88.351 17.027C88.3764 17.027 88.4019 17.0015 88.4273 17.0015L88.4019 16.9504C88.5035 16.9504 88.6051 16.9504 88.7321 16.9759C89.4181 17.0015 90.231 17.487 90.8662 18.0747C92.2127 19.0457 93.4829 20.4255 93.4829 21.2176C94.2197 26.4559 90.79 29.5733 85.7597 27.7079Z" fill="white"/>
<path d="M15.1544 14.6328C20.5583 15.1536 32.9429 13.9347 35.3927 8.87509C32.2409 3.06272 13.0024 3.91388 5.32407 7.98796C1.14233 10.1826 1.72141 12.9619 5.36549 15.515C2.18595 16.0524 -3.80663 10.0125 3.4117 4.75113C12.8584 -2.13457 38.6479 -2.30327 37.099 9.37263C36.1977 16.1699 26.5043 18.6019 15.6763 18.2716C14.5871 24.7804 9.51719 33.9544 3.71497 36.2351L4.60975 35.0459L3.60506 35.3186L4.55412 34.2277L3.60506 34.5987C8.35039 28.4623 9.84178 24.235 9.52196 13.7267C9.52196 13.7267 12.1555 14.3437 15.1544 14.6328Z" fill="white"/>
</svg>
