<svg width="16" height="16" viewBox="0 0 16 16" fill="none" xmlns="http://www.w3.org/2000/svg">
<path fill-rule="evenodd" clip-rule="evenodd" d="M8.87532 2.75H10.625C12.0747 2.75 13.25 3.92525 13.25 5.375C13.25 6.82475 12.0747 8 10.625 8H9.75V5.375C9.75 4.39009 9.42455 3.4812 8.87532 2.75ZM5.37613 2.75C5.37575 2.75 5.37538 2.75 5.375 2.75C4.10647 2.75 3.0481 3.6498 2.80333 4.84597C2.76836 5.01685 2.75 5.19378 2.75 5.375C2.75 6.82475 3.92525 8 5.375 8H8V5.375C8 3.92563 6.82536 2.75061 5.37613 2.75ZM8 9.75H5.375C4.39009 9.75 3.4812 9.42455 2.75 8.87532L2.75 10.625C2.75 12.0747 3.92525 13.25 5.375 13.25C6.82475 13.25 8 12.0747 8 10.625V9.75ZM9.75 9.75H10.625C13.0412 9.75 15 7.79125 15 5.375C15 2.95875 13.0412 1 10.625 1H5.375C3.26079 1 1.49684 2.49967 1.08888 4.49328C1.03061 4.77809 1 5.07297 1 5.375V10.625C1 13.0412 2.95875 15 5.375 15C7.79124 15 9.75 13.0412 9.75 10.625V9.75Z" fill="white"/>
</svg>
