<svg width="16" height="16" viewBox="0 0 16 16" fill="none" xmlns="http://www.w3.org/2000/svg">
<path fill-rule="evenodd" clip-rule="evenodd" d="M10.2117 5.81409L13.4055 2.59766L14.3197 3.51767L11.1259 6.73414L10.2117 5.81409ZM8.91756 9.10109C8.2925 9.10109 7.78613 8.58918 7.78613 7.95711C7.78613 7.32572 8.2925 6.81313 8.91756 6.81313C9.54257 6.81313 10.0489 7.32572 10.0489 7.95711C10.0489 8.58918 9.54257 9.10109 8.91756 9.10109ZM14.3347 12.4232L13.4204 13.344L10.2266 10.1275L11.1408 9.20684L14.3347 12.4232Z" fill="white"/>
<path fill-rule="evenodd" clip-rule="evenodd" d="M8.95048 12.902C9.59431 12.902 10.2076 12.7727 10.7698 12.543L12.3298 14.1146C11.3293 14.6768 10.1778 15 8.95048 15C5.11216 15 2 11.8659 2 8.00034C2 4.13419 5.11216 1 8.95048 1C10.1655 1 11.3066 1.31538 12.3 1.86713L10.7659 3.41266C10.2044 3.18413 9.593 3.05485 8.95048 3.05485C6.26236 3.05485 4.0832 5.25923 4.0832 7.9788C4.0832 10.6977 6.26236 12.902 8.95048 12.902Z" fill="white"/>
</svg>
