<svg width="16" height="16" viewBox="0 0 16 16" fill="none" xmlns="http://www.w3.org/2000/svg">
<g clip-path="url(#clip0_9491_49306)">
<path d="M8.00065 14.6663C11.6825 14.6663 14.6673 11.6816 14.6673 7.99967C14.6673 4.31778 11.6825 1.33301 8.00065 1.33301C4.31875 1.33301 1.33398 4.31778 1.33398 7.99967C1.33398 11.6816 4.31875 14.6663 8.00065 14.6663Z" stroke="white" stroke-width="1.3387" stroke-linecap="round" stroke-linejoin="round"/>
<path d="M1.33398 8H14.6673" stroke="white" stroke-width="1.3387" stroke-linecap="round" stroke-linejoin="round"/>
<path d="M7.9987 1.33301C9.66622 3.15858 10.6139 5.5277 10.6654 7.99967C10.6139 10.4717 9.66622 12.8408 7.9987 14.6663C6.33118 12.8408 5.38353 10.4717 5.33203 7.99967C5.38353 5.5277 6.33118 3.15858 7.9987 1.33301V1.33301Z" stroke="white" stroke-width="1.3387" stroke-linecap="round" stroke-linejoin="round"/>
</g>
<defs>
<clipPath id="clip0_9491_49306">
<rect width="16" height="16" fill="white"/>
</clipPath>
</defs>
</svg>
